<svg width="169" height="147" viewBox="0 0 169 147" fill="none" xmlns="http://www.w3.org/2000/svg">
<path d="M18.6431 19.2109C18.3243 9.21632 25.4583 0 35.1012 0H133.911C143.554 0 150.688 9.21632 150.369 19.2109C150.063 28.8116 150.46 41.2483 153.328 51.3887C156.205 61.5606 161.055 67.99 169 68.8162V78.1838C161.055 79.01 156.205 85.4394 153.328 95.6112C150.46 105.752 150.063 118.188 150.369 127.789C150.688 137.784 143.554 147 133.911 147H35.1012C25.4583 147 18.3243 137.784 18.6435 127.789C18.9495 118.188 18.5517 105.752 15.684 95.6112C12.8077 85.4394 7.94498 79.01 0 78.1838V68.8162C7.94465 67.99 12.8077 61.5606 15.684 51.3887C18.5517 41.2483 18.9495 28.8116 18.6431 19.2109Z" fill="url(#paint0_linear_2_119)"/>
<g filter="url(#filter0_d_2_119)">
<path fill-rule="evenodd" clip-rule="evenodd" d="M52.2689 64.2884C48.0902 60.1368 47.6766 53.5148 51.0295 48.4967C53.207 45.2387 56.1552 42.8641 59.8611 41.3889C60.7316 41.0419 61.6292 40.8009 62.5744 40.8237C63.7997 40.8525 64.2001 41.2967 63.9769 42.4769C63.5764 44.5986 63.4791 46.7289 63.7879 48.8592C64.3994 53.0701 66.4453 56.6208 69.2883 59.7757C70.0153 60.5824 70.8185 61.3253 71.5879 62.0973C71.923 62.3439 72.2661 62.5827 72.5923 62.8411C73.4792 63.5433 73.5967 64.3742 72.8926 65.3654C71.9066 66.7534 70.4675 67.4688 68.815 67.8359C62.7215 69.1891 56.9256 68.9157 52.2689 64.2884ZM72.0509 59.1844C74.2594 61.9238 76.9242 63.8008 80.733 63.4501C82.6826 63.2707 84.5776 62.9283 85.9598 61.3769C86.2931 61.0025 86.4994 60.6897 86.0148 60.2382C85.3973 59.662 85.0842 58.879 84.728 58.1334C83.7438 56.0739 83.2555 53.8709 82.7206 51.6808C81.7558 45.8286 82.0274 40.1238 84.7905 34.6943C85.3752 33.5452 85.0603 32.617 83.9957 31.8696C83.3138 31.392 82.5336 31.1916 81.7182 31.0824C79.3405 30.7642 77.1249 31.4176 74.9371 32.1805C67.8787 34.6436 64.1136 41.5268 65.8733 48.5963C66.8965 52.7108 69.253 56.0625 72.0509 59.1844ZM52.5579 82.1044C57.8538 82.4701 62.5598 80.8151 66.6779 77.5835C67.2748 77.1151 67.8604 76.6051 68.1565 75.8755C69.105 74.7145 69.5956 73.395 69.4758 71.9135C69.4076 71.0738 69.1317 70.2986 68.1053 70.1041C67.5408 69.5896 66.8697 69.795 66.238 69.8744C63.372 70.2356 60.5182 70.2516 57.655 69.8101C54.3613 69.3024 51.5799 68.0363 49.675 65.2294C48.9333 64.1341 47.6592 63.8962 46.3601 64.4728C44.5525 65.275 43.6107 66.7675 43.182 68.5627C42.509 71.3743 43.237 74.0146 44.4073 76.5727C45.9771 80.0052 48.8008 81.8447 52.5579 82.1044ZM84.4789 51.2087C84.7755 54.2161 85.6586 57.0313 87.4817 59.5072C89.1892 61.8261 91.5006 62.9675 94.4822 62.7918C95.2093 62.7488 95.4636 62.642 95.1585 61.8942C94.6867 60.7349 94.5508 59.4899 94.3224 58.2677C93.8379 55.6634 94.1664 53.0884 94.5198 50.5111C94.8183 49.4729 94.9936 48.3821 95.4368 47.406C96.9487 44.0662 99.0388 41.1132 101.802 38.5984C103.596 36.9653 103.359 34.8213 101.393 33.3589C100.02 32.3385 98.3935 31.9463 96.7504 31.6805C91.5015 30.8309 87.2523 32.3462 85.142 37.6259C83.3664 42.0674 83.7335 46.6362 84.4789 51.2087ZM71.8774 99.8123C73.2902 98.034 74.4469 96.1242 74.5028 93.7756C74.5202 91.7526 73.694 90.182 71.8821 89.162C70.271 88.2566 68.7839 88.5753 67.7227 89.9994C66.9646 91.0166 66.0448 91.8649 64.9817 92.5826C62.1472 94.4961 58.9352 95.406 55.5983 96.0571C53.0401 96.557 52.1697 98.5239 53.4081 100.765C55.6223 104.776 61.0573 106.669 65.3774 104.923C68.0569 103.84 70.1333 102.008 71.8774 99.8123ZM122.739 49.2003C120.868 47.2622 118.347 47.0083 115.947 48.3447C112.898 50.0427 110.673 52.5912 108.522 55.2087C107.039 56.7605 105.898 58.5434 104.863 60.3902C103.898 62.1119 103.09 63.8957 102.805 65.8658C102.541 67.7003 103.11 68.4751 104.981 68.7467C105.324 68.7965 105.675 68.8376 106.02 68.8344C110.095 68.7988 113.972 67.8322 117.761 66.4593C118.949 66.0941 120.119 65.6973 121.24 65.1467C123.642 63.967 125.425 62.2261 126.011 59.6597C126.932 55.6278 125.579 52.1401 122.739 49.2003ZM53.9637 94.3413C59.2666 93.997 63.5022 91.743 66.5839 87.5175C67.6423 86.0647 68.0996 84.3927 67.9417 82.5907C67.7598 80.5046 66.5797 79.8892 64.7904 80.9749C62.064 82.6295 59.1204 83.7252 55.9311 84.1019C53.1764 84.4274 50.5379 83.9659 48.0258 82.7733C46.6647 82.1264 45.7115 82.5948 45.2965 84.0015C45.1898 84.3608 45.1038 84.7384 45.0925 85.1109C44.9755 88.9611 47.8288 94.586 53.9637 94.3413ZM101.469 41.2771C99.0886 43.8905 97.3793 46.9503 96.2696 50.296C94.6373 54.6298 94.7915 58.8512 97.1913 62.8949C98.0368 64.3185 99.1868 65.4978 100.691 66.3037C101.766 66.8803 102.028 66.7392 102.13 65.5823C102.19 64.907 102.244 64.2295 102.356 63.562C102.964 59.9542 105.036 57.0491 107.166 54.175C108.875 52.1155 110.816 50.2719 112.875 48.557C114.993 46.7956 116.046 44.0881 115.31 41.919C114.552 39.6859 111.603 37.6798 108.996 37.5721C105.764 37.4387 103.419 39.1349 101.469 41.2771ZM83.1187 97.5998C82.3071 96.0009 80.812 95.2462 79.0227 95.2635C77.2612 95.2804 76.0806 96.2132 75.4343 97.834C74.3576 100.535 72.4574 102.564 69.9119 104.051C68.8803 104.654 67.8722 105.299 67.0765 106.201C65.885 107.552 65.8263 108.991 67.0892 110.236C68.9123 112.031 71.0564 113.251 73.8683 113.212C76.7038 113.236 78.9969 111.956 80.8712 109.884C82.081 108.548 82.7832 106.979 83.3067 105.248C84.0973 102.633 84.3872 100.099 83.1187 97.5998ZM87.3614 97.4998C85.0231 97.7477 84.5395 98.4435 84.8995 100.513C85.1623 102.024 85.5101 103.544 85.3014 105.103C85.0509 106.993 84.0658 108.565 83.0642 110.138C81.6448 112.369 82.4852 114.448 85.049 115.289C87.4944 116.092 89.6573 115.532 91.5683 114.032C94.3389 111.856 95.2779 108.849 95.4006 105.376C95.3555 104.952 95.2925 104.393 95.2342 103.832C94.8455 100.09 91.2031 97.0935 87.3614 97.4998ZM104.549 99.2247C103.037 97.9217 100.799 97.8267 98.4447 99.0325C96.5967 99.9785 96.3363 100.577 96.7208 103.077C97.0098 104.957 97.0183 106.84 96.8007 108.724C96.5427 110.954 97.7694 112.466 100.067 112.662C100.722 112.718 101.389 112.708 102.048 112.665C105.689 112.431 107.719 110.312 107.68 105.97C107.585 103.907 106.901 101.25 104.549 99.2247ZM113.356 95.3124C111.362 95.4197 109.23 95.7822 107.342 96.9579C106.308 97.6012 106.259 97.9719 107.029 98.7846C107.828 99.6301 108.429 100.572 108.8 101.672C109.23 102.949 109.177 104.275 109.322 105.58C109.559 107.719 110.766 108.344 112.677 107.263C114.375 106.302 115.769 104.987 117.045 103.557C117.944 102.549 118.787 101.448 118.828 100.073C118.906 97.5089 117.227 95.227 113.356 95.3124ZM122.025 88.7767C119.491 89.7734 117.443 91.4398 115.636 93.4003C115.463 93.5889 115.226 93.8112 115.345 94.0938C115.481 94.4139 115.819 94.2751 116.068 94.2769C117.543 94.2888 118.847 94.6422 119.612 95.9986C120.141 96.9387 120.336 97.9769 120.427 99.0357C120.445 99.2475 120.36 99.5283 120.647 99.6205C120.918 99.7068 121.073 99.4763 121.208 99.3064C123.202 96.7839 124.544 93.9829 125.023 91.1933C125.039 88.8794 123.875 88.0498 122.025 88.7767ZM104.361 69.6914C103.737 69.6521 103.764 70.0055 103.737 70.3858C103.618 71.9724 104.745 73.4955 106.733 73.9351C111.54 74.9989 115.98 74.2419 119.805 71.0213C122.171 69.1097 123.894 66.7511 125.04 63.9752C123.052 65.4522 120.851 66.5219 118.629 67.556C114.009 69.1284 109.278 70.0059 104.361 69.6914ZM88.8357 66.6529C88.8578 67.9468 89.7757 69.0303 90.8562 69.0353C91.8991 69.0398 92.8838 67.872 92.8777 66.6369C92.8711 65.3924 91.9109 64.2135 90.8919 64.1993C89.7738 64.1834 88.8146 65.3289 88.8357 66.6529ZM70.827 82.6167C70.803 83.5339 71.5973 84.2964 72.6088 84.3293C73.9581 84.3722 75.5086 83.0313 75.5363 81.7976C75.5584 80.8598 74.7975 80.1257 73.7593 80.0837C72.3465 80.0266 70.8604 81.3105 70.827 82.6167ZM77.7561 69.5129C77.7552 68.161 76.513 67.0675 74.9832 67.0698C73.8265 67.0725 73.0435 67.7368 73.0407 68.7161C73.0379 69.9571 74.4295 71.1505 75.8827 71.1524C77.0906 71.1542 77.7575 70.5712 77.7561 69.5129ZM81.2881 93.5647C81.3708 94.381 81.8131 94.891 82.7451 94.8211C83.7927 94.7974 84.7609 93.7678 84.727 92.7072C84.6984 91.8475 84.2223 91.3663 83.3509 91.3503C82.3136 91.3325 81.1861 92.5433 81.2881 93.5647ZM99.2414 94.4614C98.4476 94.4595 98.1782 95.0859 98.1627 95.8187C98.2032 96.6383 98.5547 97.3309 99.4707 97.3669C100.335 97.4012 100.645 96.7127 100.607 95.9771C100.567 95.1645 100.171 94.4636 99.2414 94.4614ZM111.772 92.2452C111.748 91.5092 111.4 90.875 110.619 90.8248C109.906 90.7787 109.529 91.4508 109.552 92.0475C109.578 92.7123 109.881 93.4368 110.733 93.4752C111.503 93.5099 111.75 92.9405 111.772 92.2452Z" fill="white"/>
</g>
<defs>
<filter id="filter0_d_2_119" x="42.9243" y="31" width="93.3737" height="92.6555" filterUnits="userSpaceOnUse" color-interpolation-filters="sRGB">
<feFlood flood-opacity="0" result="BackgroundImageFix"/>
<feColorMatrix in="SourceAlpha" type="matrix" values="0 0 0 0 0 0 0 0 0 0 0 0 0 0 0 0 0 0 127 0" result="hardAlpha"/>
<feOffset dx="6" dy="4"/>
<feGaussianBlur stdDeviation="2"/>
<feComposite in2="hardAlpha" operator="out"/>
<feColorMatrix type="matrix" values="0 0 0 0 0 0 0 0 0 0 0 0 0 0 0 0 0 0 0.25 0"/>
<feBlend mode="normal" in2="BackgroundImageFix" result="effect1_dropShadow_2_119"/>
<feBlend mode="normal" in="SourceGraphic" in2="effect1_dropShadow_2_119" result="shape"/>
</filter>
<linearGradient id="paint0_linear_2_119" x1="25.112" y1="3.89046" x2="182.57" y2="118.398" gradientUnits="userSpaceOnUse">
<stop stop-color="#9013FE"/>
<stop offset="1" stop-color="#6610F2"/>
</linearGradient>
</defs>
</svg>
